<svg width="45" height="44" viewBox="0 0 45 44" fill="none" xmlns="http://www.w3.org/2000/svg">
<path d="M22.7013 3.66663C12.5977 3.66663 4.36792 11.8965 4.36792 22C4.36792 32.1035 12.5977 40.3333 22.7013 40.3333C32.8048 40.3333 41.0346 32.1035 41.0346 22C41.0346 11.8965 32.8048 3.66663 22.7013 3.66663ZM22.7013 7.33329C30.8231 7.33329 37.3679 13.8781 37.3679 22C37.3679 29.3598 31.9877 35.4072 24.9356 36.4804V26.372H29.2039L29.8735 22.0358H24.9356V19.6653C24.9356 17.8632 25.5227 16.2636 27.2094 16.2636H29.9164V12.4788C29.4398 12.4146 28.4338 12.2747 26.5326 12.2747C22.5616 12.2747 20.2341 14.372 20.2341 19.1497V22.0358H16.1521V26.372H20.2341V36.4446C13.2968 35.2748 8.03459 29.2787 8.03459 22C8.03459 13.8781 14.5794 7.33329 22.7013 7.33329Z" fill="#006C51"/>
</svg>
