<svg width="37" height="37" viewBox="0 0 37 37" fill="none" xmlns="http://www.w3.org/2000/svg">
<path d="M12.5 5C8.3645 5 5 8.3645 5 12.5V24.5C5 28.6355 8.3645 32 12.5 32H24.5C28.6355 32 32 28.6355 32 24.5V12.5C32 8.3645 28.6355 5 24.5 5H12.5ZM12.5 8H24.5C26.981 8 29 10.019 29 12.5V24.5C29 26.981 26.981 29 24.5 29H12.5C10.019 29 8 26.981 8 24.5V12.5C8 10.019 10.019 8 12.5 8ZM26 9.5C25.6022 9.5 25.2206 9.65804 24.9393 9.93934C24.658 10.2206 24.5 10.6022 24.5 11C24.5 11.3978 24.658 11.7794 24.9393 12.0607C25.2206 12.342 25.6022 12.5 26 12.5C26.3978 12.5 26.7794 12.342 27.0607 12.0607C27.342 11.7794 27.5 11.3978 27.5 11C27.5 10.6022 27.342 10.2206 27.0607 9.93934C26.7794 9.65804 26.3978 9.5 26 9.5ZM18.5 11C14.3645 11 11 14.3645 11 18.5C11 22.6355 14.3645 26 18.5 26C22.6355 26 26 22.6355 26 18.5C26 14.3645 22.6355 11 18.5 11ZM18.5 14C20.981 14 23 16.019 23 18.5C23 20.981 20.981 23 18.5 23C16.019 23 14 20.981 14 18.5C14 16.019 16.019 14 18.5 14Z" fill="white"/>
</svg>
