<svg width="45" height="44" viewBox="0 0 45 44" fill="none" xmlns="http://www.w3.org/2000/svg">
<path d="M15.3678 5.5C10.3133 5.5 6.20117 9.61217 6.20117 14.6667V29.3333C6.20117 34.3878 10.3133 38.5 15.3678 38.5H30.0345C35.089 38.5 39.2012 34.3878 39.2012 29.3333V14.6667C39.2012 9.61217 35.089 5.5 30.0345 5.5H15.3678ZM15.3678 9.16667H30.0345C33.0668 9.16667 35.5345 11.6343 35.5345 14.6667V29.3333C35.5345 32.3657 33.0668 34.8333 30.0345 34.8333H15.3678C12.3355 34.8333 9.86784 32.3657 9.86784 29.3333V14.6667C9.86784 11.6343 12.3355 9.16667 15.3678 9.16667ZM31.8678 11C31.3816 11 30.9153 11.1932 30.5715 11.537C30.2277 11.8808 30.0345 12.3471 30.0345 12.8333C30.0345 13.3196 30.2277 13.7859 30.5715 14.1297C30.9153 14.4735 31.3816 14.6667 31.8678 14.6667C32.3541 14.6667 32.8204 14.4735 33.1642 14.1297C33.508 13.7859 33.7012 13.3196 33.7012 12.8333C33.7012 12.3471 33.508 11.8808 33.1642 11.537C32.8204 11.1932 32.3541 11 31.8678 11ZM22.7012 12.8333C17.6467 12.8333 13.5345 16.9455 13.5345 22C13.5345 27.0545 17.6467 31.1667 22.7012 31.1667C27.7557 31.1667 31.8678 27.0545 31.8678 22C31.8678 16.9455 27.7557 12.8333 22.7012 12.8333ZM22.7012 16.5C25.7335 16.5 28.2012 18.9677 28.2012 22C28.2012 25.0323 25.7335 27.5 22.7012 27.5C19.6688 27.5 17.2012 25.0323 17.2012 22C17.2012 18.9677 19.6688 16.5 22.7012 16.5Z" fill="#006C51"/>
</svg>
