<svg width="45" height="44" viewBox="0 0 45 44" fill="none" xmlns="http://www.w3.org/2000/svg">
<g clip-path="url(#clip0_152_5550)">
<path d="M33.7012 29.48C32.3078 29.48 31.0612 30.03 30.1078 30.8916L17.0362 23.2833C17.1278 22.8616 17.2012 22.44 17.2012 22C17.2012 21.56 17.1278 21.1383 17.0362 20.7166L29.9612 13.1816C30.9512 14.0983 32.2528 14.6666 33.7012 14.6666C36.7445 14.6666 39.2012 12.21 39.2012 9.16663C39.2012 6.12329 36.7445 3.66663 33.7012 3.66663C30.6578 3.66663 28.2012 6.12329 28.2012 9.16663C28.2012 9.60663 28.2745 10.0283 28.3662 10.45L15.4412 17.985C14.4512 17.0683 13.1495 16.5 11.7012 16.5C8.65784 16.5 6.20117 18.9566 6.20117 22C6.20117 25.0433 8.65784 27.5 11.7012 27.5C13.1495 27.5 14.4512 26.9316 15.4412 26.015L28.4945 33.6416C28.4028 34.0266 28.3478 34.43 28.3478 34.8333C28.3478 37.785 30.7495 40.1866 33.7012 40.1866C36.6528 40.1866 39.0545 37.785 39.0545 34.8333C39.0545 31.8816 36.6528 29.48 33.7012 29.48ZM33.7012 7.33329C34.7095 7.33329 35.5345 8.15829 35.5345 9.16663C35.5345 10.175 34.7095 11 33.7012 11C32.6928 11 31.8678 10.175 31.8678 9.16663C31.8678 8.15829 32.6928 7.33329 33.7012 7.33329ZM11.7012 23.8333C10.6928 23.8333 9.86784 23.0083 9.86784 22C9.86784 20.9916 10.6928 20.1666 11.7012 20.1666C12.7095 20.1666 13.5345 20.9916 13.5345 22C13.5345 23.0083 12.7095 23.8333 11.7012 23.8333ZM33.7012 36.7033C32.6928 36.7033 31.8678 35.8783 31.8678 34.87C31.8678 33.8616 32.6928 33.0366 33.7012 33.0366C34.7095 33.0366 35.5345 33.8616 35.5345 34.87C35.5345 35.8783 34.7095 36.7033 33.7012 36.7033Z" fill="#006C51"/>
</g>
<defs>
<clipPath id="clip0_152_5550">
<rect width="44" height="44" fill="white" transform="translate(0.701172)"/>
</clipPath>
</defs>
</svg>
