<svg width="337" height="69" viewBox="0 0 337 69" fill="none" xmlns="http://www.w3.org/2000/svg">
<g clip-path="url(#clip0_103_230)">
<path d="M56.1338 35.6363L51.0457 35.6169L53.5995 31.3056L56.1629 26.9944L58.6875 31.3153L61.2218 35.646L56.1338 35.6363Z" fill="#00815F"/>
<path d="M51.5798 38.6561C51.5798 50.3664 42.0542 59.892 30.3439 59.892C18.6336 59.892 9.10802 50.3664 9.10802 38.6561C9.10802 26.9458 18.6336 17.4202 30.3439 17.4202V8.30249C13.6135 8.30249 0 21.916 0 38.6561C0 55.3962 13.6135 69.0097 30.3536 69.0097C47.0937 69.0097 60.7072 55.3962 60.7072 38.6561H51.5895H51.5798Z" fill="#00815F"/>
<path d="M59.309 23.6832C62.0181 21.8383 66.2614 18.7505 68.9705 16.9056V66.2715H77.894V0.029541L56.1241 14.8471L34.3833 0.029541V25.3145H43.3068V16.9056C46.0256 18.7602 49.7446 21.8189 52.4634 23.6735H59.3187L59.309 23.6832Z" fill="#FFB100"/>
<path d="M230.818 51.8326L242.188 15.2452H246.334C247.043 15.2452 247.694 14.8956 248.063 14.3227L250.781 5.08846L225.215 5.30208L226.516 1.35009C226.594 1.11705 226.419 0.874298 226.166 0.874298H214.854C214.699 0.874298 214.553 0.971399 214.505 1.12676L213.087 5.4186L194.133 5.57396C193.647 5.57396 193.259 5.94294 193.259 6.39932L191.084 14.4295C191.084 14.8859 191.472 15.2549 191.958 15.2549H229.769L218.398 51.8423H189.025C188.608 51.8423 188.258 52.1919 188.258 52.6191V61.2222C188.258 61.6495 188.598 61.999 189.025 61.999H248.966C249.461 61.999 249.898 61.6786 250.053 61.2125L253.219 51.852H230.788L230.818 51.8326Z" fill="#00815F"/>
<path d="M208.348 44.6666H219.661L210.922 23.6152C210.766 23.2365 210.397 22.9938 209.989 22.9938H198.677L207.416 44.0452C207.572 44.4238 207.941 44.6666 208.348 44.6666Z" fill="#00815F"/>
<path d="M161.07 31.3347V34.8983C161.07 35.2187 160.721 35.4809 160.284 35.4809H151.389C150.952 35.4809 150.603 35.2187 150.603 34.8983V31.3347C150.603 31.0143 150.952 30.7521 151.389 30.7521H160.284C160.721 30.7521 161.07 31.0143 161.07 31.3347ZM142.048 31.3347V34.8983C142.048 35.2187 141.699 35.4809 141.262 35.4809H132.367C131.93 35.4809 131.581 35.2187 131.581 34.8983V31.3347C131.581 31.0143 131.93 30.7521 132.367 30.7521H141.262C141.699 30.7521 142.048 31.0143 142.048 31.3347ZM161.07 45.3463V48.9099C161.07 49.2303 160.721 49.4925 160.284 49.4925H151.389C150.952 49.4925 150.603 49.2303 150.603 48.9099V45.3463C150.603 45.0259 150.952 44.7637 151.389 44.7637H160.284C160.721 44.7637 161.07 45.0259 161.07 45.3463ZM142.048 45.3463V48.9099C142.048 49.2303 141.699 49.4925 141.262 49.4925H132.367C131.93 49.4925 131.581 49.2303 131.581 48.9099V45.3463C131.581 45.0259 131.93 44.7637 132.367 44.7637H141.262C141.699 44.7637 142.048 45.0259 142.048 45.3463ZM169.916 21.2945C169.955 20.809 169.576 20.4012 169.13 20.4498C167.294 20.6343 165.508 20.6828 162.954 20.6828H130.163C127.609 20.6828 126.706 20.6925 124.861 20.6925C123.551 20.7022 123.395 21.0129 123.405 22.8384C123.405 24.9455 123.424 25.3922 123.424 28.0139V53.9106C123.424 57.1052 123.483 58.416 123.463 61.9991C123.463 62.9118 124.726 62.805 125.153 62.805H131.853C132.251 62.805 132.571 62.4554 132.571 62.0282V60.795C132.571 60.3678 132.892 60.0182 133.29 60.0182H159.827C160.225 60.0182 160.546 60.3678 160.546 60.795V62.0282C160.546 62.4554 160.866 62.805 161.264 62.805H168.994C169.421 62.805 169.761 62.5525 169.761 61.6204C169.761 59.2123 169.683 57.2508 169.683 53.9786V28.0236C169.683 25.2368 169.732 23.4502 169.906 21.3042L169.916 21.2945Z" fill="#00815F"/>
<path d="M140.475 5.77787C140.087 5.77787 139.776 5.45744 139.776 5.04961V4.2631C139.776 3.11732 139.844 2.28225 140.941 1.36951C140.941 1.36951 134.222 1.36951 132.299 1.36951H131.406C131.202 1.36951 131.027 1.54429 131.027 1.75791V5.76816H128.279C125.667 5.76816 123.764 5.76816 121.958 5.76816C121.327 5.76816 121.181 6.50612 121.181 6.93336V13.575C121.181 14.0023 121.541 14.3421 121.958 14.2936C123.725 14.1091 125.619 14.0217 128.279 14.0217H130.387C130.6 14.0217 130.794 14.1188 130.921 14.2742V17.3425C130.921 17.3425 130.921 17.3717 130.921 17.3911H139.893C139.776 16.5463 139.776 16.1288 139.776 14.7402C139.776 14.3421 140.087 14.012 140.475 14.012H145.631V5.74874H140.475V5.77787Z" fill="#00815F"/>
<path d="M173.179 5.75845C171.042 5.72932 169.168 5.77787 166.294 5.77787H162.896C162.507 5.77787 162.197 5.45744 162.197 5.04961V4.2631C162.197 3.17558 162.235 2.19486 163.236 1.36951H156.341H153.875C153.671 1.36951 153.496 1.54429 153.496 1.75791V3.69992C153.496 3.69992 153.496 3.75818 153.496 3.78731V5.21469C153.428 5.53512 153.147 5.77787 152.807 5.77787H148.001V14.0411H152.807C153.05 14.0411 153.254 14.1673 153.38 14.3518V17.0318C153.38 17.2454 153.545 17.4202 153.759 17.4202H154.652H162.362C162.245 16.5172 162.187 15.7307 162.187 14.8276V14.7694C162.187 14.3713 162.498 14.0411 162.886 14.0411H166.285C168.994 14.0411 168.829 14.0217 170.79 14.0411C171.11 14.0411 171.392 13.8275 171.479 13.5168L173.538 6.20511C173.606 5.96236 173.412 5.75845 173.169 5.75845H173.179Z" fill="#00815F"/>
<path d="M104.82 8.61322L100.839 16.2259V40.8603H98.1394L94.7312 47.6088V50.5315H100.839V56.1536H108.636V50.5315C110.821 50.5315 114.588 50.4635 116.773 50.4635L119.268 44.2588V8.61322H104.82ZM111.53 40.8603H108.636V18.2165H111.53V40.8603Z" fill="#00815F"/>
<path d="M305.264 37.0151V32.1601H298.875L300.788 37.0151H305.264Z" fill="#00815F"/>
<path d="M317.256 37.0151H321.733V32.1601H315.344L317.256 37.0151Z" fill="#00815F"/>
<path d="M320.063 4.63209C320.597 3.83587 321.131 3.03964 321.606 2.18516L311.877 -2.9903C306.896 8.7006 300.953 11.1961 298.166 13.0798V5.49629H288.796V1.23357H276.445L279.688 5.49629H270.231L267.793 13.8469H279.358V16.6337H274.969L271.396 24.2561V41.1419H279.368V43.9287H269.163L266.473 52.4735H279.368V62.805H288.806V52.4735H298.448V50.4441H306.235L306.352 50.2208V53.4639C306.352 54.1242 306.119 54.1922 305.546 54.3281C304.944 54.3961 302.245 54.3281 300.691 54.2796C301.953 57.8237 302.963 60.1736 303.74 62.2806C307.158 62.2806 309.828 62.3486 311.974 61.0183C314.052 59.6881 314.392 57.1732 314.392 53.6678V50.4441H319.509L322.83 44.2976V53.8912C322.713 54.1048 322.374 54.0659 321.956 54.0659C321.354 54.0659 318.956 54.0659 317.353 53.998C318.169 56.9207 319.043 58.9307 320.15 62.2904C321.548 62.2904 322.84 62.3195 324.015 62.2904C325.976 62.2806 327.374 62.1059 328.918 61.1349C331.132 59.7463 331.2 56.979 331.2 53.3377V19.8672C331.87 17.6144 335.133 13.5459 336.88 13.8372C329.656 12.6332 323.432 8.53553 320.092 4.63209H320.063ZM288.456 33.9856H279.688V31.5581H288.456V33.9856ZM288.456 25.5087H279.688V23.0035H288.456V25.5087ZM288.787 13.8469H295.817C295.35 14.1091 294.816 14.381 294.273 14.5752C294.739 15.1092 295.273 15.8375 295.817 16.624H288.787V13.8372V13.8469ZM306.333 33.8593V39.1222H304.692L298.429 50.0363V43.9287H288.787V41.1419C290.33 41.1419 292.904 40.8991 294.447 40.8991L297.157 33.9856V18.6146C297.759 19.5467 298.361 20.5371 298.827 21.4013V27.2953H306.323V33.8496L306.333 33.8593ZM315.509 19.4788V27.2953H322.811V39.1125H317.975L314.372 45.3852V19.469H305.536C308.886 17.0804 312.032 14.3033 314.907 11.1864C317.519 14.2353 320.733 17.0804 324.277 19.469H315.509V19.4788Z" fill="#00815F"/>
</g>
<defs>
<clipPath id="clip0_103_230">
<rect width="336.861" height="72" fill="white" transform="translate(0 -3)"/>
</clipPath>
</defs>
</svg>
