<svg width="281" height="60" viewBox="0 0 281 60" fill="none" xmlns="http://www.w3.org/2000/svg">
<g clip-path="url(#clip0_99_739)">
<path d="M46.7798 32.1978L42.5392 32.1757L44.665 28.5883L46.802 24.9899L48.9057 28.5994L51.0205 32.2089L46.7798 32.1978Z" fill="#00815F"/>
<path d="M42.9821 34.7112C42.9821 44.4658 35.0434 52.4045 25.2888 52.4045C15.5342 52.4045 7.5955 44.4658 7.5955 34.7112C7.5955 24.9567 15.5342 17.0179 25.2888 17.0179V9.42242C11.349 9.42242 0 20.7603 0 34.7112C0 48.6621 11.349 60 25.2888 60C39.2286 60 50.5776 48.6511 50.5776 34.7112H42.9821Z" fill="#00815F"/>
<path d="M49.4261 22.2329C51.6848 20.6939 55.2168 18.1141 57.4756 16.5861V57.7192H64.905V2.52448L46.7688 14.881L28.6437 2.52448V23.5948H36.0731V16.5861C38.3429 18.1362 41.4431 20.6828 43.7018 22.2329H49.415H49.4261Z" fill="#FFB100"/>
<path d="M192.345 45.6948L201.812 15.2021H205.267C205.854 15.2021 206.396 14.9142 206.706 14.4381L208.976 6.74293L187.673 6.92008L188.758 3.62058C188.825 3.42128 188.681 3.22198 188.47 3.22198H179.048C178.915 3.22198 178.804 3.31056 178.76 3.43236L177.586 7.00866L161.786 7.14153C161.388 7.14153 161.056 7.45155 161.056 7.828L159.251 14.5156C159.251 14.892 159.572 15.2021 159.982 15.2021H191.493L182.026 45.6948H157.557C157.202 45.6948 156.926 45.9826 156.926 46.337V53.5006C156.926 53.8549 157.214 54.1428 157.557 54.1428H207.514C207.924 54.1428 208.289 53.8771 208.422 53.4896L211.057 45.6837H192.368L192.345 45.6948Z" fill="#333333"/>
<path d="M173.622 39.7158H183.045L175.759 22.1775C175.627 21.8675 175.317 21.6571 174.984 21.6571H165.562L172.847 39.1954C172.98 39.5054 173.29 39.7158 173.622 39.7158Z" fill="#333333"/>
<path d="M134.217 28.6104V31.5778C134.217 31.8435 133.929 32.065 133.563 32.065H126.156C125.791 32.065 125.503 31.8435 125.503 31.5778V28.6104C125.503 28.3447 125.791 28.1233 126.156 28.1233H133.563C133.929 28.1233 134.217 28.3447 134.217 28.6104ZM118.361 28.6104V31.5778C118.361 31.8435 118.073 32.065 117.708 32.065H110.301C109.935 32.065 109.648 31.8435 109.648 31.5778V28.6104C109.648 28.3447 109.935 28.1233 110.301 28.1233H117.708C118.073 28.1233 118.361 28.3447 118.361 28.6104ZM134.217 40.2805V43.2478C134.217 43.5136 133.929 43.735 133.563 43.735H126.156C125.791 43.735 125.503 43.5136 125.503 43.2478V40.2805C125.503 40.0148 125.791 39.7933 126.156 39.7933H133.563C133.929 39.7933 134.217 40.0148 134.217 40.2805ZM118.361 40.2805V43.2478C118.361 43.5136 118.073 43.735 117.708 43.735H110.301C109.935 43.735 109.648 43.5136 109.648 43.2478V40.2805C109.648 40.0148 109.935 39.7933 110.301 39.7933H117.708C118.073 39.7933 118.361 40.0148 118.361 40.2805ZM141.58 20.2399C141.613 19.8413 141.303 19.4981 140.926 19.5313C139.398 19.6863 137.904 19.7195 135.789 19.7195H108.463C106.337 19.7195 105.584 19.7195 104.045 19.7195C102.949 19.7195 102.827 19.9852 102.827 21.5132C102.827 23.2737 102.849 23.639 102.849 25.8313V47.411C102.849 50.0683 102.894 51.1644 102.882 54.1539C102.882 54.9179 103.934 54.8182 104.289 54.8182H109.869C110.201 54.8182 110.467 54.5304 110.467 54.165V53.1353C110.467 52.781 110.733 52.482 111.065 52.482H133.176C133.508 52.482 133.774 52.7699 133.774 53.1353V54.165C133.774 54.5193 134.039 54.8182 134.372 54.8182H140.816C141.17 54.8182 141.458 54.6079 141.458 53.8328C141.458 51.8288 141.391 50.1901 141.391 47.4663V25.8313C141.391 23.5062 141.425 22.0225 141.58 20.2288V20.2399Z" fill="#333333"/>
<path d="M117.066 7.31869C116.745 7.31869 116.479 7.05296 116.479 6.7208V6.06754C116.479 5.11533 116.534 4.41779 117.453 3.65381C117.453 3.65381 111.851 3.65381 110.245 3.65381H109.504C109.326 3.65381 109.194 3.79775 109.194 3.9749V7.31869H106.902C104.72 7.31869 103.137 7.31869 101.631 7.31869C101.1 7.31869 100.989 7.92766 100.989 8.29304V13.8291C100.989 14.1834 101.288 14.4602 101.631 14.427C103.104 14.272 104.687 14.1945 106.902 14.1945H108.662C108.839 14.1945 108.994 14.2831 109.105 14.4049V16.9625C109.105 16.9625 109.105 16.9847 109.105 17.0068H116.579C116.479 16.2982 116.479 15.955 116.479 14.7924C116.479 14.4602 116.745 14.1834 117.066 14.1834H121.362V7.29655H117.066V7.31869Z" fill="#333333"/>
<path d="M144.303 7.29655C142.521 7.2744 140.96 7.31869 138.568 7.31869H135.734C135.412 7.31869 135.147 7.05296 135.147 6.7208V6.06754C135.147 5.15962 135.18 4.34028 136.01 3.65381H130.264H128.204C128.027 3.65381 127.894 3.79775 127.894 3.9749V5.59144C127.894 5.59144 127.894 5.63572 127.894 5.66894V6.85366C127.839 7.11939 127.607 7.31869 127.319 7.31869H123.311V14.2056H127.319C127.518 14.2056 127.695 14.3052 127.795 14.4602V16.6968C127.795 16.874 127.939 17.0179 128.105 17.0179H128.847H135.28C135.18 16.265 135.136 15.6117 135.136 14.8588V14.8035C135.136 14.4713 135.401 14.2056 135.722 14.2056H138.557C140.816 14.2056 140.672 14.1945 142.31 14.2056C142.576 14.2056 142.809 14.0284 142.886 13.7627L144.602 7.673C144.658 7.4737 144.503 7.30762 144.292 7.29655H144.303Z" fill="#333333"/>
<path d="M87.3482 9.67706L84.0266 16.0214V36.5492H81.7789L78.9445 42.1738V44.6097H84.0376V49.2932H90.537V44.6097C92.3639 44.6097 95.4973 44.5544 97.3242 44.5544L99.3947 39.3837V9.67706H87.3593H87.3482ZM92.9397 36.5492H90.5259V17.6822H92.9397V36.5492Z" fill="#333333"/>
<path d="M254.372 33.3493V29.2969H249.057L250.651 33.3493H254.372Z" fill="#333333"/>
<path d="M264.37 33.3493H268.101V29.2969H262.775L264.37 33.3493Z" fill="#333333"/>
<path d="M266.706 6.35544C267.149 5.69111 267.603 5.02678 267.99 4.30709L259.886 -0.0110474C255.734 9.73245 250.784 11.814 248.459 13.3863V7.06406H240.642V3.5099H230.356L233.058 7.06406H225.174L223.148 14.0174H232.781V16.3315H229.127L226.149 22.6869V36.7596H232.792V39.0737H224.289L222.052 46.1931H232.803V54.8072H240.675V46.1931H248.714V44.499H255.202L255.302 44.3108V47.0124C255.302 47.566 255.102 47.6214 254.637 47.7321C254.139 47.7874 251.892 47.7321 250.596 47.6878C251.648 50.6441 252.489 52.5928 253.132 54.3532C255.977 54.3532 258.203 54.4086 259.996 53.3014C261.724 52.1942 262.011 50.1015 262.011 47.1674V44.4769H266.274L269.042 39.3615V47.3556C268.943 47.5328 268.666 47.4996 268.312 47.4996C267.813 47.4996 265.809 47.4996 264.481 47.4442C265.167 49.8801 265.887 51.552 266.817 54.3532C267.99 54.3532 269.053 54.3864 270.039 54.3532C271.677 54.3532 272.84 54.1982 274.124 53.3899C275.962 52.2274 276.018 49.9244 276.018 46.8906V19.0109C276.571 17.1286 279.295 13.7406 280.746 13.9842C274.722 12.9766 269.541 9.56637 266.75 6.31115L266.706 6.35544ZM240.365 30.8138H233.058V28.7876H240.365V30.8138ZM240.365 23.7498H233.058V21.6572H240.365V23.7498ZM240.642 14.0284H246.499C246.112 14.2499 245.658 14.4713 245.215 14.6374C245.603 15.0803 246.056 15.6893 246.499 16.3536H240.642V14.0395V14.0284ZM255.257 30.7031V35.0877H253.896L248.681 44.1779V39.0958H240.642V36.7817C241.927 36.7817 244.075 36.5824 245.359 36.5824L247.618 30.8249V18.0144C248.116 18.7895 248.625 19.6199 249.013 20.3285V25.2445H255.257V30.7142V30.7031ZM262.897 18.723V25.2335H268.976V35.0766H264.946L261.945 40.3027V18.712H254.582C257.372 16.73 259.996 14.4049 262.399 11.814C264.58 14.3495 267.249 16.73 270.216 18.712H262.908L262.897 18.723Z" fill="#333333"/>
</g>
<defs>
<clipPath id="clip0_99_739">
<rect width="280.701" height="60" fill="white"/>
</clipPath>
</defs>
</svg>
