<svg width="36" height="37" viewBox="0 0 36 37" fill="none" xmlns="http://www.w3.org/2000/svg">
<path d="M18 3.5C9.7335 3.5 3 10.2335 3 18.5C3 26.7665 9.7335 33.5 18 33.5C26.2665 33.5 33 26.7665 33 18.5C33 10.2335 26.2665 3.5 18 3.5ZM18 6.5C24.6452 6.5 30 11.8548 30 18.5C30 24.5217 25.598 29.4695 19.8281 30.3477V22.0771H23.3203L23.8682 18.5293H19.8281V16.5898C19.8281 15.1153 20.3085 13.8066 21.6885 13.8066H23.9033V10.71C23.5133 10.6575 22.6903 10.543 21.1348 10.543C17.8858 10.543 15.9814 12.259 15.9814 16.168V18.5293H12.6416V22.0771H15.9814V30.3184C10.3054 29.3613 6 24.4554 6 18.5C6 11.8548 11.3548 6.5 18 6.5Z" fill="#006C51"/>
</svg>
