<svg width="36" height="37" viewBox="0 0 36 37" fill="none" xmlns="http://www.w3.org/2000/svg">
<path d="M12 5C7.8645 5 4.5 8.3645 4.5 12.5V24.5C4.5 28.6355 7.8645 32 12 32H24C28.1355 32 31.5 28.6355 31.5 24.5V12.5C31.5 8.3645 28.1355 5 24 5H12ZM12 8H24C26.481 8 28.5 10.019 28.5 12.5V24.5C28.5 26.981 26.481 29 24 29H12C9.519 29 7.5 26.981 7.5 24.5V12.5C7.5 10.019 9.519 8 12 8ZM25.5 9.5C25.1022 9.5 24.7206 9.65804 24.4393 9.93934C24.158 10.2206 24 10.6022 24 11C24 11.3978 24.158 11.7794 24.4393 12.0607C24.7206 12.342 25.1022 12.5 25.5 12.5C25.8978 12.5 26.2794 12.342 26.5607 12.0607C26.842 11.7794 27 11.3978 27 11C27 10.6022 26.842 10.2206 26.5607 9.93934C26.2794 9.65804 25.8978 9.5 25.5 9.5ZM18 11C13.8645 11 10.5 14.3645 10.5 18.5C10.5 22.6355 13.8645 26 18 26C22.1355 26 25.5 22.6355 25.5 18.5C25.5 14.3645 22.1355 11 18 11ZM18 14C20.481 14 22.5 16.019 22.5 18.5C22.5 20.981 20.481 23 18 23C15.519 23 13.5 20.981 13.5 18.5C13.5 16.019 15.519 14 18 14Z" fill="#006C51"/>
</svg>
